<mxfile host="Electron" agent="Mozilla/5.0 (Macintosh; Intel Mac OS X 10_15_7) AppleWebKit/537.36 (KHTML, like Gecko) draw.io/28.1.2 Chrome/138.0.7204.243 Electron/37.4.0 Safari/537.36" version="28.1.2">
  <diagram name="Page-1" id="f4-yoLsllmq7B_zccilM">
    <mxGraphModel dx="946" dy="673" grid="1" gridSize="10" guides="1" tooltips="1" connect="1" arrows="1" fold="1" page="1" pageScale="1" pageWidth="850" pageHeight="1100" math="0" shadow="0">
      <root>
        <mxCell id="0" />
        <mxCell id="1" parent="0" />
        <mxCell id="QzI6kHWOmHquprrkrAZP-1" value="" style="rounded=0;whiteSpace=wrap;html=1;fillColor=#fff2cc;strokeColor=#d6b656;shadow=0;sketch=1;curveFitting=1;jiggle=2;" vertex="1" parent="1">
          <mxGeometry x="55" y="250" width="220" height="360" as="geometry" />
        </mxCell>
        <mxCell id="QzI6kHWOmHquprrkrAZP-2" value="&lt;font style=&quot;font-size: 18px;&quot;&gt;组件1&lt;/font&gt;" style="rounded=0;whiteSpace=wrap;html=1;fillColor=#d5e8d4;strokeColor=#82b366;shadow=0;sketch=1;curveFitting=1;jiggle=2;" vertex="1" parent="1">
          <mxGeometry x="95" y="250" width="60" height="60" as="geometry" />
        </mxCell>
        <mxCell id="QzI6kHWOmHquprrkrAZP-3" value="orientation=horizontal&lt;div&gt;gravity=right | top&lt;/div&gt;" style="text;html=1;align=center;verticalAlign=middle;whiteSpace=wrap;rounded=0;fontSize=20;fillColor=#ffe6cc;strokeColor=#d79b00;sketch=1;curveFitting=1;jiggle=2;" vertex="1" parent="1">
          <mxGeometry x="55" y="50" width="220" height="70" as="geometry" />
        </mxCell>
        <mxCell id="QzI6kHWOmHquprrkrAZP-4" value="&lt;font style=&quot;font-size: 16px;&quot;&gt;方向=水平&lt;/font&gt;&lt;div&gt;&lt;font style=&quot;font-size: 16px;&quot;&gt;垂直排列 = 上对齐&lt;/font&gt;&lt;div&gt;&lt;font style=&quot;font-size: 16px;&quot;&gt;水平排列 = 右对齐&lt;/font&gt;&lt;/div&gt;&lt;/div&gt;" style="text;html=1;align=center;verticalAlign=middle;whiteSpace=wrap;rounded=0;fillColor=#dae8fc;strokeColor=#6c8ebf;fontColor=#333333;sketch=1;curveFitting=1;jiggle=2;" vertex="1" parent="1">
          <mxGeometry x="55" y="140" width="220" height="90" as="geometry" />
        </mxCell>
        <mxCell id="QzI6kHWOmHquprrkrAZP-5" value="&lt;font style=&quot;font-size: 18px;&quot;&gt;组件2&lt;/font&gt;" style="rounded=0;whiteSpace=wrap;html=1;fillColor=#d5e8d4;strokeColor=#82b366;shadow=0;sketch=1;curveFitting=1;jiggle=2;" vertex="1" parent="1">
          <mxGeometry x="155" y="250" width="60" height="60" as="geometry" />
        </mxCell>
        <mxCell id="QzI6kHWOmHquprrkrAZP-6" value="&lt;font style=&quot;font-size: 18px;&quot;&gt;组件3&lt;/font&gt;" style="rounded=0;whiteSpace=wrap;html=1;fillColor=#d5e8d4;strokeColor=#82b366;shadow=0;sketch=1;curveFitting=1;jiggle=2;" vertex="1" parent="1">
          <mxGeometry x="215" y="250" width="60" height="60" as="geometry" />
        </mxCell>
        <mxCell id="QzI6kHWOmHquprrkrAZP-7" value="" style="rounded=0;whiteSpace=wrap;html=1;fillColor=#fff2cc;strokeColor=#d6b656;shadow=0;sketch=1;curveFitting=1;jiggle=2;" vertex="1" parent="1">
          <mxGeometry x="315" y="250" width="220" height="360" as="geometry" />
        </mxCell>
        <mxCell id="QzI6kHWOmHquprrkrAZP-8" value="&lt;font style=&quot;font-size: 18px;&quot;&gt;组件1&lt;/font&gt;" style="rounded=0;whiteSpace=wrap;html=1;fillColor=#d5e8d4;strokeColor=#82b366;shadow=0;sketch=1;curveFitting=1;jiggle=2;" vertex="1" parent="1">
          <mxGeometry x="355" y="400" width="60" height="60" as="geometry" />
        </mxCell>
        <mxCell id="QzI6kHWOmHquprrkrAZP-9" value="orientation=horizontal&lt;div&gt;gravity=right | center_vertical&lt;/div&gt;" style="text;html=1;align=center;verticalAlign=middle;whiteSpace=wrap;rounded=0;fontSize=20;fillColor=#ffe6cc;strokeColor=#d79b00;sketch=1;curveFitting=1;jiggle=2;" vertex="1" parent="1">
          <mxGeometry x="315" y="50" width="220" height="70" as="geometry" />
        </mxCell>
        <mxCell id="QzI6kHWOmHquprrkrAZP-10" value="&lt;font style=&quot;font-size: 16px;&quot;&gt;方向=水平&lt;/font&gt;&lt;div&gt;&lt;font style=&quot;font-size: 16px;&quot;&gt;垂直排列 = 垂直居中&lt;/font&gt;&lt;div&gt;&lt;font style=&quot;font-size: 16px;&quot;&gt;水平排列 = 右对齐&lt;/font&gt;&lt;/div&gt;&lt;/div&gt;" style="text;html=1;align=center;verticalAlign=middle;whiteSpace=wrap;rounded=0;fillColor=#dae8fc;strokeColor=#6c8ebf;fontColor=#333333;sketch=1;curveFitting=1;jiggle=2;" vertex="1" parent="1">
          <mxGeometry x="315" y="140" width="220" height="90" as="geometry" />
        </mxCell>
        <mxCell id="QzI6kHWOmHquprrkrAZP-11" value="&lt;font style=&quot;font-size: 18px;&quot;&gt;组件2&lt;/font&gt;" style="rounded=0;whiteSpace=wrap;html=1;fillColor=#d5e8d4;strokeColor=#82b366;shadow=0;sketch=1;curveFitting=1;jiggle=2;" vertex="1" parent="1">
          <mxGeometry x="415" y="400" width="60" height="60" as="geometry" />
        </mxCell>
        <mxCell id="QzI6kHWOmHquprrkrAZP-12" value="&lt;font style=&quot;font-size: 18px;&quot;&gt;组件3&lt;/font&gt;" style="rounded=0;whiteSpace=wrap;html=1;fillColor=#d5e8d4;strokeColor=#82b366;shadow=0;sketch=1;curveFitting=1;jiggle=2;" vertex="1" parent="1">
          <mxGeometry x="475" y="400" width="60" height="60" as="geometry" />
        </mxCell>
        <mxCell id="QzI6kHWOmHquprrkrAZP-13" value="" style="rounded=0;whiteSpace=wrap;html=1;fillColor=#fff2cc;strokeColor=#d6b656;shadow=0;sketch=1;curveFitting=1;jiggle=2;" vertex="1" parent="1">
          <mxGeometry x="575" y="250" width="220" height="360" as="geometry" />
        </mxCell>
        <mxCell id="QzI6kHWOmHquprrkrAZP-14" value="&lt;font style=&quot;font-size: 18px;&quot;&gt;组件1&lt;/font&gt;" style="rounded=0;whiteSpace=wrap;html=1;fillColor=#d5e8d4;strokeColor=#82b366;shadow=0;sketch=1;curveFitting=1;jiggle=2;" vertex="1" parent="1">
          <mxGeometry x="615" y="550" width="60" height="60" as="geometry" />
        </mxCell>
        <mxCell id="QzI6kHWOmHquprrkrAZP-15" value="orientation=horizontal&lt;div&gt;gravity=right | bottom&lt;/div&gt;" style="text;html=1;align=center;verticalAlign=middle;whiteSpace=wrap;rounded=0;fontSize=20;fillColor=#ffe6cc;strokeColor=#d79b00;sketch=1;curveFitting=1;jiggle=2;" vertex="1" parent="1">
          <mxGeometry x="575" y="50" width="220" height="70" as="geometry" />
        </mxCell>
        <mxCell id="QzI6kHWOmHquprrkrAZP-16" value="&lt;font style=&quot;font-size: 16px;&quot;&gt;方向=水平&lt;/font&gt;&lt;div&gt;&lt;font style=&quot;font-size: 16px;&quot;&gt;垂直排列 = 下对齐&lt;/font&gt;&lt;div&gt;&lt;font style=&quot;font-size: 16px;&quot;&gt;水平排列 = 右对齐&lt;/font&gt;&lt;/div&gt;&lt;/div&gt;" style="text;html=1;align=center;verticalAlign=middle;whiteSpace=wrap;rounded=0;fillColor=#dae8fc;strokeColor=#6c8ebf;fontColor=#333333;sketch=1;curveFitting=1;jiggle=2;" vertex="1" parent="1">
          <mxGeometry x="575" y="140" width="220" height="90" as="geometry" />
        </mxCell>
        <mxCell id="QzI6kHWOmHquprrkrAZP-17" value="&lt;font style=&quot;font-size: 18px;&quot;&gt;组件2&lt;/font&gt;" style="rounded=0;whiteSpace=wrap;html=1;fillColor=#d5e8d4;strokeColor=#82b366;shadow=0;sketch=1;curveFitting=1;jiggle=2;" vertex="1" parent="1">
          <mxGeometry x="675" y="550" width="60" height="60" as="geometry" />
        </mxCell>
        <mxCell id="QzI6kHWOmHquprrkrAZP-18" value="&lt;font style=&quot;font-size: 18px;&quot;&gt;组件3&lt;/font&gt;" style="rounded=0;whiteSpace=wrap;html=1;fillColor=#d5e8d4;strokeColor=#82b366;shadow=0;sketch=1;curveFitting=1;jiggle=2;" vertex="1" parent="1">
          <mxGeometry x="735" y="550" width="60" height="60" as="geometry" />
        </mxCell>
      </root>
    </mxGraphModel>
  </diagram>
</mxfile>
